<?xml version="1.0" encoding="iso-8859-1"?>
<!-- Generator: Adobe Illustrator 19.0.0, SVG Export Plug-In . SVG Version: 6.00 Build 0)  -->
<svg version="1.1" id="Layer_1" xmlns="http://www.w3.org/2000/svg" xmlns:xlink="http://www.w3.org/1999/xlink" x="0px" y="0px"
	 viewBox="0 0 490 490" style="enable-background:new 0 0 490 490;" xml:space="preserve">
<g>
	<g id="XMLID_45_">
		<g>
			<path style="fill:#AFB6BB;" d="M480,390v80c0,5.498-4.502,10-10,10H335v-60H155v60H20c-5.498,0-10-4.502-10-10v-80
				c0-5.498,4.502-10,10-10h25h45h310h45h25C475.498,380,480,384.502,480,390z"/>
			<path style="fill:#AFB6BB;" d="M480,20v80c0,5.498-4.502,10-10,10h-25H45H20c-5.498,0-10-4.502-10-10V20c0-5.498,4.502-10,10-10
				h450C475.498,10,480,14.502,480,20z M290,75V45h-90v30H290z"/>
			<rect x="400" y="180" style="fill:#AFB6BB;" width="45" height="200"/>
			<polygon style="fill:#E7ECED;" points="400,180 400,380 90,380 90,180 45,180 45,145 210,145 210,200 210,235 245,235 280,235 
				280,200 280,145 445,145 445,180 			"/>
			<polygon style="fill:#AFB6BB;" points="445,110 445,145 280,145 210,145 45,145 45,110 			"/>
			<rect x="155" y="420" style="fill:#F4661E;" width="180" height="60"/>
			<rect x="200" y="45" style="fill:#6F7579;" width="90" height="30"/>
			<rect x="210" y="200" style="fill:#6F7579;" width="70" height="35"/>
			<rect x="210" y="145" style="fill:#AFB6BB;" width="70" height="55"/>
			<rect x="45" y="180" style="fill:#AFB6BB;" width="45" height="200"/>
		</g>
		<g>
			<path style="fill:#231F20;" d="M455,120h15c11.028,0,20-8.972,20-20V20c0-11.028-8.972-20-20-20H20C8.972,0,0,8.972,0,20v80
				c0,11.028,8.972,20,20,20h15v250H20c-11.028,0-20,8.972-20,20v80c0,11.028,8.972,20,20,20h450c11.028,0,20-8.972,20-20v-80
				c0-11.028-8.972-20-20-20h-15V120z M20,20h450l0.002,80H20V20z M435,120v15H55v-15H435z M305,170v20h85v180H100V190h85v-20H55
				v-15h145v80c0,5.523,4.477,10,10,10h25v25h20v-25h25c5.522,0,10-4.477,10-10v-80h145v15H305z M220,225v-15h50v15H220z M270,190
				h-50v-35h50V190z M55,190h25v180H55V190z M325,470H165v-40h160V470z M470.002,470H345v-50c0-5.522-4.478-10-10-10H155
				c-5.523,0-10,4.478-10,10v50H20v-80h450L470.002,470z M410,370V190h25v180H410z"/>
			<path style="fill:#231F20;" d="M290,35h-90c-5.523,0-10,4.478-10,10v30c0,5.523,4.477,10,10,10h90c5.522,0,10-4.477,10-10V45
				C300,39.478,295.522,35,290,35z M280,65h-70V55h70V65z"/>
			<rect x="315" y="50" style="fill:#231F20;" width="20" height="20"/>
			<rect x="355" y="50" style="fill:#231F20;" width="60" height="20"/>
			<rect x="75" y="50" style="fill:#231F20;" width="60" height="20"/>
			<rect x="155" y="50" style="fill:#231F20;" width="20" height="20"/>
			<rect x="215" y="440" style="fill:#231F20;" width="60" height="20"/>
			<rect x="425" y="420" style="fill:#231F20;" width="20" height="20"/>
			<rect x="45" y="420" style="fill:#231F20;" width="20" height="20"/>
		</g>
	</g>
</g>
<g>
</g>
<g>
</g>
<g>
</g>
<g>
</g>
<g>
</g>
<g>
</g>
<g>
</g>
<g>
</g>
<g>
</g>
<g>
</g>
<g>
</g>
<g>
</g>
<g>
</g>
<g>
</g>
<g>
</g>
</svg>
