<?xml version="1.0" ?><!DOCTYPE svg  PUBLIC '-//W3C//DTD SVG 1.1//EN'  'http://www.w3.org/Graphics/SVG/1.1/DTD/svg11.dtd'><svg enable-background="new 0 0 128 128" id="Слой_1" version="1.1" viewBox="0 0 128 128" xml:space="preserve" xmlns="http://www.w3.org/2000/svg" xmlns:xlink="http://www.w3.org/1999/xlink"><g><path d="M13.7,108.2L3.3,48.5C1.5,38,8.2,27.9,18.6,25.5l82-18.6c13.4-3,25.8,8.1,24.3,21.7L116,107   c-1.1,10.1-9.7,17.8-19.9,17.8H33.4C23.6,124.7,15.3,117.8,13.7,108.2z" fill="#ECF8FB"/></g><g><g><path d="M96,101V87c0-2.8-2.2-5-5-5H52l-4.1-16.2c-0.6-2.2-2.6-3.8-4.9-3.8H21v13H11c-1.1,0-2,0.9-2,2v8H8    c-1.1,0-2,0.9-2,2v14c-1.1,0-2,0.9-2,2v4.5c0,2.5,2,4.5,4.5,4.5h84.7h0.3c2.5,0,4.5-2,4.5-4.5V103C98,101.9,97.1,101,96,101z" fill="#C9C4CD"/></g><g><path d="M52,82h39c2.8,0,5,2.2,5,5v14H52V82z" fill="#ACD9C8"/></g><g><rect fill="#FFFFFF" height="3" width="90" x="6" y="94.5"/></g><g><path d="M9,85v-8c0-1.1,0.9-2,2-2h10l0,10L9,85z" fill="#F3CDB9"/></g><g opacity="0.2"><polygon fill="#62345B" points="21,75 17,75 17,81 9,81 9,85 21,85   "/></g><g><path d="M32.7,86L52,91l0.9-9H52l-4.1-16.2c-0.6-2.2-2.6-3.8-4.9-3.8H29v19.1C29,83.4,30.5,85.4,32.7,86z" fill="#E5F5FA"/></g><g opacity="0.7"><g><path d="M43.1,62h-1.8L29,78.1v3c0,0.5,0.1,1.1,0.3,1.5l15.6-20.4C44.3,62.1,43.7,62,43.1,62z" fill="#FFFFFF"/></g><g><path d="M47.3,64.3l-16.1,21c0.5,0.3,1,0.6,1.5,0.7l0.1,0L48,66.1l-0.1-0.4C47.8,65.2,47.6,64.7,47.3,64.3z" fill="#FFFFFF"/></g></g><g opacity="0.2"><g><path d="M91,82H52l-4.1-16.2c-0.6-2.2-2.6-3.8-4.9-3.8H21v5h22.1c2.3,0,4.3,1.6,4.9,3.8L52,87h39c2.8,0,5,2.2,5,5     v-5C96,84.2,93.8,82,91,82z" fill="#62345B"/></g></g><g><path d="M96,102.5H6c-0.8,0-1.5-0.7-1.5-1.5V87c0-1.9,1.6-3.5,3.5-3.5h11.5V62c0-0.8,0.7-1.5,1.5-1.5h22.1    c3,0,5.6,2,6.3,4.9l3.8,15.1H91c3.6,0,6.5,2.9,6.5,6.5v14C97.5,101.8,96.8,102.5,96,102.5z M7.5,99.5h87V87c0-1.9-1.6-3.5-3.5-3.5    H52c-0.7,0-1.3-0.5-1.5-1.1l-4.1-16.2c-0.4-1.6-1.8-2.7-3.4-2.7H22.5V85c0,0.8-0.7,1.5-1.5,1.5H8c-0.3,0-0.5,0.2-0.5,0.5V99.5z" fill="#62345B"/></g><g><path d="M89,96.5c-0.8,0-1.5-0.7-1.5-1.5v-8c0-0.8,0.7-1.5,1.5-1.5s1.5,0.7,1.5,1.5v8C90.5,95.8,89.8,96.5,89,96.5    z" fill="#62345B"/></g><g><path d="M82,96.5c-0.8,0-1.5-0.7-1.5-1.5v-8c0-0.8,0.7-1.5,1.5-1.5s1.5,0.7,1.5,1.5v8C83.5,95.8,82.8,96.5,82,96.5    z" fill="#62345B"/></g><g><path d="M75,96.5c-0.8,0-1.5-0.7-1.5-1.5v-8c0-0.8,0.7-1.5,1.5-1.5s1.5,0.7,1.5,1.5v8C76.5,95.8,75.8,96.5,75,96.5    z" fill="#62345B"/></g><g><path d="M9,86.5c-0.8,0-1.5-0.7-1.5-1.5v-8c0-1.9,1.6-3.5,3.5-3.5h10c0.8,0,1.5,0.7,1.5,1.5s-0.7,1.5-1.5,1.5H11    c-0.3,0-0.5,0.2-0.5,0.5v8C10.5,85.8,9.8,86.5,9,86.5z" fill="#62345B"/></g><g><path d="M52,92.5c-0.1,0-0.3,0-0.4,0l-19.3-5c-2.9-0.7-4.9-3.3-4.9-6.3V62c0-0.8,0.7-1.5,1.5-1.5s1.5,0.7,1.5,1.5    v19.1c0,1.6,1.1,3,2.6,3.4l19.3,5c0.8,0.2,1.3,1,1.1,1.8C53.3,92.1,52.7,92.5,52,92.5z" fill="#62345B"/></g><g><path d="M52,102.5c-0.8,0-1.5-0.7-1.5-1.5V82c0-0.8,0.7-1.5,1.5-1.5s1.5,0.7,1.5,1.5v19    C53.5,101.8,52.8,102.5,52,102.5z" fill="#62345B"/></g><g opacity="0.2"><polygon fill="#62345B" points="96,97 6,97 6,101 96,101 96,97   "/></g><g><path d="M93.5,113.5h-0.3c-0.8,0-1.5-0.7-1.5-1.5s0.7-1.5,1.5-1.5h0.3c1.7,0,3-1.3,3-3V103c0-0.3-0.2-0.5-0.5-0.5    H6c-0.3,0-0.5,0.2-0.5,0.5v4.5c0,1.7,1.3,3,3,3c0.8,0,1.5,0.7,1.5,1.5s-0.7,1.5-1.5,1.5c-3.3,0-6-2.7-6-6V103    c0-1.9,1.6-3.5,3.5-3.5h90c1.9,0,3.5,1.6,3.5,3.5v4.5C99.5,110.8,96.8,113.5,93.5,113.5z" fill="#62345B"/></g><g><path d="M124,125.5c-10.5,0-19-8.5-19-19V86c0-0.8,0.7-1.5,1.5-1.5s1.5,0.7,1.5,1.5v20.5c0,8.8,7.2,16,16,16    c0.8,0,1.5,0.7,1.5,1.5S124.8,125.5,124,125.5z" fill="#62345B"/></g><g opacity="0.2"><path d="M96.7,110.6c-2-3.9-6-6.6-10.7-6.6H16c-4.7,0-8.7,2.7-10.7,6.6c0.8,0.8,2,1.4,3.2,1.4h84.7h0.3    C94.8,112,95.9,111.5,96.7,110.6z" fill="#62345B"/></g><g><path d="M86,124H16c-4.4,0-8-3.6-8-8v0c0-4.4,3.6-8,8-8h35h35c4.4,0,8,3.6,8,8v0C94,120.4,90.4,124,86,124z" fill="#B09AAC"/></g><g opacity="0.2"><g><path d="M16,112h35h35c3.7,0,6.8,2.6,7.7,6c0.2-0.6,0.3-1.3,0.3-2c0-4.4-3.6-8-8-8H51H16c-4.4,0-8,3.6-8,8     c0,0.7,0.1,1.4,0.3,2C9.2,114.6,12.3,112,16,112z" fill="#62345B"/></g></g><g><path d="M86,125.5H16c-5.2,0-9.5-4.3-9.5-9.5c0-5.2,4.3-9.5,9.5-9.5h70c5.2,0,9.5,4.3,9.5,9.5    C95.5,121.2,91.2,125.5,86,125.5z M16,109.5c-3.6,0-6.5,2.9-6.5,6.5c0,3.6,2.9,6.5,6.5,6.5h70c3.6,0,6.5-2.9,6.5-6.5    c0-3.6-2.9-6.5-6.5-6.5H16z" fill="#62345B"/></g><g><path d="M16,120.5c-2.5,0-4.5-2-4.5-4.5s2-4.5,4.5-4.5s4.5,2,4.5,4.5S18.5,120.5,16,120.5z M16,114.5    c-0.8,0-1.5,0.7-1.5,1.5s0.7,1.5,1.5,1.5s1.5-0.7,1.5-1.5S16.8,114.5,16,114.5z" fill="#62345B"/></g><g><path d="M108.5,117.5H51c-0.8,0-1.5-0.7-1.5-1.5s0.7-1.5,1.5-1.5h57.5c0.8,0,1.5,0.7,1.5,1.5    S109.3,117.5,108.5,117.5z" fill="#62345B"/></g><g><path d="M59.8,83.5c-0.8,0-1.5-0.7-1.5-1.5V62.6l-4.6-4.6c-0.6-0.6-0.6-1.5,0-2.1c0.6-0.6,1.5-0.6,2.1,0l5,5    c0.3,0.3,0.4,0.7,0.4,1.1v20C61.3,82.8,60.7,83.5,59.8,83.5z" fill="#62345B"/></g></g></svg>