<?xml version="1.0" encoding="utf-8"?>
<!-- Generator: Adobe Illustrator 16.0.0, SVG Export Plug-In . SVG Version: 6.00 Build 0)  -->
<!DOCTYPE svg PUBLIC "-//W3C//DTD SVG 1.1//EN" "http://www.w3.org/Graphics/SVG/1.1/DTD/svg11.dtd">
<svg version="1.1"
	 id="svg2985" xmlns:dc="http://purl.org/dc/elements/1.1/" xmlns:cc="http://creativecommons.org/ns#" xmlns:rdf="http://www.w3.org/1999/02/22-rdf-syntax-ns#" xmlns:svg="http://www.w3.org/2000/svg" xmlns:sodipodi="http://sodipodi.sourceforge.net/DTD/sodipodi-0.dtd" xmlns:inkscape="http://www.inkscape.org/namespaces/inkscape" sodipodi:docname="Target_Logo_1968_(With_Text).svg" inkscape:version="0.48.3.1 r9886"
	 xmlns="http://www.w3.org/2000/svg" xmlns:xlink="http://www.w3.org/1999/xlink" x="0px" y="0px" width="400px" height="400px"
	 viewBox="0 0 400 400">

<path id="path4027" inkscape:connector-curvature="0" fill="#EB2D2D" d="M200.219,0C89.764,0,0,89.764,0,200.219
	C0,310.673,89.764,400,200.219,400C310.673,400,400,310.673,400,200.219C400,89.764,310.673,0,200.219,0z M200.219,72.35
	c70.529,0,127.65,57.34,127.65,127.869c0,70.528-57.121,127.65-127.65,127.65c-70.529,0-127.869-57.122-127.869-127.65
	C72.35,129.69,129.69,72.35,200.219,72.35z"/>
<path id="path3953" sodipodi:ry="33.312256" sodipodi:rx="29.794363" sodipodi:cy="724.72736" sodipodi:cx="-43.435158" sodipodi:type="arc" fill="#EB2D2D" d="
	M264.309,200.091c0,35.469-28.752,64.222-64.221,64.222c-35.468,0-64.221-28.753-64.221-64.222
	c0-35.468,28.753-64.222,64.221-64.222C235.557,135.869,264.309,164.623,264.309,200.091L264.309,200.091z"/>
</svg>
